<svg width="77" height="15" viewBox="0 0 77 15" fill="none" xmlns="http://www.w3.org/2000/svg">
<path d="M7.49329 0L9.17564 5.17774H14.6198L10.2154 8.37775L11.8977 13.5555L7.49329 10.3555L3.08884 13.5555L4.77119 8.37775L0.366748 5.17774H5.81094L7.49329 0Z" fill="#D9D9D9"/>
<path d="M22.9967 0L24.6791 5.17774H30.1232L25.7188 8.37775L27.4012 13.5555L22.9967 10.3555L18.5923 13.5555L20.2746 8.37775L15.8702 5.17774H21.3144L22.9967 0Z" fill="#D9D9D9"/>
<path d="M54.0034 0L55.6858 5.17774H61.13L56.7255 8.37775L58.4079 13.5555L54.0034 10.3555L49.599 13.5555L51.2813 8.37775L46.8769 5.17774H52.3211L54.0034 0Z" fill="#D9D9D9"/>
<path d="M38.5 0L40.1824 5.17774H45.6265L41.2221 8.37775L42.9044 13.5555L38.5 10.3555L34.0956 13.5555L35.7779 8.37775L31.3735 5.17774H36.8177L38.5 0Z" fill="#D9D9D9"/>
<path d="M69.5067 0L71.1891 5.17774H76.6333L72.2288 8.37775L73.9112 13.5555L69.5067 10.3555L65.1023 13.5555L66.7846 8.37775L62.3802 5.17774H67.8244L69.5067 0Z" fill="#D9D9D9"/>
</svg>
